ISO-10303-21;
HEADER;
FILE_DESCRIPTION (( 'STEP AP214' ),
    '1' );
FILE_NAME ('fin.STEP',
    '2026-03-08T10:45:07',
    ( '' ),
    ( '' ),
    'SwSTEP 2.0',
    'SolidWorks 2023',
    '' );
FILE_SCHEMA (( 'AUTOMOTIVE_DESIGN' ));
ENDSEC;

DATA;
#1 = LINE ( 'NONE', #446, #474 ) ;
#2 = ORIENTED_EDGE ( 'NONE', *, *, #380, .T. ) ;
#3 = DIRECTION ( 'NONE',  ( 0.000000000000000000, -0.000000000000000000, 1.000000000000000000 ) ) ;
#4 = PLANE ( 'NONE',  #653 ) ;
#5 = PLANE ( 'NONE',  #529 ) ;
#6 = LINE ( 'NONE', #286, #171 ) ;
#7 = VECTOR ( 'NONE', #373, 1000.000000000000000 ) ;
#8 = VECTOR ( 'NONE', #550, 1000.000000000000000 ) ;
#9 = CARTESIAN_POINT ( 'NONE',  ( 0.000000000000000000, -195.0000000000000000, 2.999999999999944045 ) ) ;
#10 = LINE ( 'NONE', #179, #473 ) ;
#11 = CARTESIAN_POINT ( 'NONE',  ( 0.000000000000000000, 0.000000000000000000, 0.000000000000000000 ) ) ;
#12 = DIRECTION ( 'NONE',  ( 0.000000000000000000, -1.000000000000000000, -1.845923698795833165E-16 ) ) ;
#13 = CARTESIAN_POINT ( 'NONE',  ( 0.000000000000000000, 65.00000000000000000, 2.999999999999996447 ) ) ;
#14 = CIRCLE ( 'NONE', #527, 195.0000000000000000 ) ;
#15 = COLOUR_RGB ( '',0.7921568627450980005, 0.8196078431372548767, 0.9333333333333333481 ) ;
#16 = CIRCLE ( 'NONE', #450, 65.00000000000000000 ) ;
#17 = DIRECTION ( 'NONE',  ( 0.000000000000000000, 1.836970198721029688E-16, -1.000000000000000000 ) ) ;
#18 = ORIENTED_EDGE ( 'NONE', *, *, #445, .T. ) ;
#19 = DIRECTION ( 'NONE',  ( 0.000000000000000000, -1.000000000000000000, -1.836970198721029688E-16 ) ) ;
#20 = DIRECTION ( 'NONE',  ( 0.000000000000000000, -1.000000000000000000, -1.836970198721029688E-16 ) ) ;
#21 = ORIENTED_EDGE ( 'NONE', *, *, #616, .T. ) ;
#22 = CARTESIAN_POINT ( 'NONE',  ( -195.0000000000000000, 5.510910596163120124E-16, 2.999999999999980016 ) ) ;
#23 = CARTESIAN_POINT ( 'NONE',  ( -65.00000000000000000, -7.966588320977875686E-31, 2.999999999999988898 ) ) ;
#24 = EDGE_CURVE ( 'NONE', #518, #202, #541, .T. ) ;
#25 = ORIENTED_EDGE ( 'NONE', *, *, #61, .F. ) ;
#26 = VECTOR ( 'NONE', #52, 1000.000000000000000 ) ;
#27 = LINE ( 'NONE', #613, #113 ) ;
#28 = PRESENTATION_LAYER_ASSIGNMENT (  '', '', ( #463 ) ) ;
#29 = ORIENTED_EDGE ( 'NONE', *, *, #562, .F. ) ;
#30 = CARTESIAN_POINT ( 'NONE',  ( 65.00000000000000000, 0.000000000000000000, 2.999999999999999112 ) ) ;
#31 = FACE_OUTER_BOUND ( 'NONE', #484, .T. ) ;
#32 = VERTEX_POINT ( 'NONE', #45 ) ;
#33 = DIRECTION ( 'NONE',  ( 0.000000000000000000, -1.000000000000000000, -1.845923698795833165E-16 ) ) ;
#34 = ORIENTED_EDGE ( 'NONE', *, *, #180, .F. ) ;
#35 = DIRECTION ( 'NONE',  ( -0.000000000000000000, -1.836970198721029688E-16, 1.000000000000000000 ) ) ;
#36 = CARTESIAN_POINT ( 'NONE',  ( 0.000000000000000000, 0.000000000000000000, -3.000000000000032419 ) ) ;
#37 = CIRCLE ( 'NONE', #98, 195.0000000000000000 ) ;
#38 = PRESENTATION_STYLE_ASSIGNMENT (( #215 ) ) ;
#39 = CIRCLE ( 'NONE', #513, 195.0000000000000000 ) ;
#40 = ORIENTED_EDGE ( 'NONE', *, *, #457, .F. ) ;
#41 = EDGE_LOOP ( 'NONE', ( #85, #150, #405, #205 ) ) ;
#42 =( NAMED_UNIT ( * ) PLANE_ANGLE_UNIT ( ) SI_UNIT ( $, .RADIAN. ) );
#43 = DIRECTION ( 'NONE',  ( 0.000000000000000000, 1.000000000000000000, 1.836970198721029688E-16 ) ) ;
#44 = ORIENTED_EDGE ( 'NONE', *, *, #50, .T. ) ;
#45 = CARTESIAN_POINT ( 'NONE',  ( 0.000000000000000000, 195.0000000000000000, -3.000000000000015987 ) ) ;
#46 = ADVANCED_FACE ( 'NONE', ( #155 ), #227, .F. ) ;
#47 = FILL_AREA_STYLE_COLOUR ( '', #174 ) ;
#48 = FILL_AREA_STYLE ('',( #690 ) ) ;
#49 = ORIENTED_EDGE ( 'NONE', *, *, #317, .T. ) ;
#50 = EDGE_CURVE ( 'NONE', #432, #538, #695, .T. ) ;
#51 = VERTEX_POINT ( 'NONE', #94 ) ;
#52 = DIRECTION ( 'NONE',  ( -0.000000000000000000, -1.836970198721029688E-16, 1.000000000000000000 ) ) ;
#53 = VERTEX_POINT ( 'NONE', #304 ) ;
#54 = ORIENTED_EDGE ( 'NONE', *, *, #63, .F. ) ;
#55 = AXIS2_PLACEMENT_3D ( 'NONE', #90, #139, #349 ) ;
#56 = VECTOR ( 'NONE', #20, 1000.000000000000000 ) ;
#57 = VECTOR ( 'NONE', #505, 1000.000000000000000 ) ;
#58 = CARTESIAN_POINT ( 'NONE',  ( 0.000000000000000000, 65.00000000000000000, 2.999999999999996447 ) ) ;
#59 = ORIENTED_EDGE ( 'NONE', *, *, #380, .F. ) ;
#60 = DIRECTION ( 'NONE',  ( 0.000000000000000000, 1.000000000000000000, 1.836970198721029688E-16 ) ) ;
#61 = EDGE_CURVE ( 'NONE', #303, #223, #362, .T. ) ;
#62 = LINE ( 'NONE', #598, #263 ) ;
#63 = EDGE_CURVE ( 'NONE', #154, #147, #400, .T. ) ;
#64 = DIRECTION ( 'NONE',  ( 0.000000000000000000, 0.000000000000000000, -1.000000000000000000 ) ) ;
#65 = DIRECTION ( 'NONE',  ( 0.000000000000000000, -1.000000000000000000, -1.845923698795833165E-16 ) ) ;
#66 = AXIS2_PLACEMENT_3D ( 'NONE', #611, #551, #12 ) ;
#67 = VECTOR ( 'NONE', #198, 1000.000000000000000 ) ;
#68 = VECTOR ( 'NONE', #294, 1000.000000000000000 ) ;
#69 = DIRECTION ( 'NONE',  ( -0.000000000000000000, -1.836970198721029688E-16, 1.000000000000000000 ) ) ;
#70 = SURFACE_STYLE_USAGE ( .BOTH. , #122 ) ;
#71 = CARTESIAN_POINT ( 'NONE',  ( 0.000000000000000000, 0.000000000000000000, 0.000000000000000000 ) ) ;
#72 = DIRECTION ( 'NONE',  ( -0.000000000000000000, -1.836970198721029688E-16, 1.000000000000000000 ) ) ;
#73 = VERTEX_POINT ( 'NONE', #365 ) ;
#74 = DIRECTION ( 'NONE',  ( -0.000000000000000000, -1.836970198721029688E-16, 1.000000000000000000 ) ) ;
#75 = VERTEX_POINT ( 'NONE', #588 ) ;
#76 = AXIS2_PLACEMENT_3D ( 'NONE', #58, #285, #238 ) ;
#77 = ADVANCED_FACE ( 'NONE', ( #526 ), #102, .T. ) ;
#78 = DIRECTION ( 'NONE',  ( 0.000000000000000000, -1.000000000000000000, -1.836970198721029688E-16 ) ) ;
#79 = PRODUCT_DEFINITION_FORMATION_WITH_SPECIFIED_SOURCE ( 'ANY', '', #399, .NOT_KNOWN. ) ;
#80 = UNCERTAINTY_MEASURE_WITH_UNIT (LENGTH_MEASURE( 1.000000000000000082E-05 ), #148, 'distance_accuracy_value', 'NONE');
#81 = VERTEX_POINT ( 'NONE', #447 ) ;
#82 = EDGE_CURVE ( 'NONE', #75, #53, #14, .T. ) ;
#83 = LINE ( 'NONE', #508, #635 ) ;
#84 = CARTESIAN_POINT ( 'NONE',  ( 65.00000000000000000, -3.659266894335748121E-30, -3.000000000000012879 ) ) ;
#85 = ORIENTED_EDGE ( 'NONE', *, *, #24, .F. ) ;
#86 = CYLINDRICAL_SURFACE ( 'NONE', #356, 65.00000000000000000 ) ;
#87 = CLOSED_SHELL ( 'NONE', ( #605, #329, #410, #339, #132, #177 ) ) ;
#88 = PLANE ( 'NONE',  #666 ) ;
#89 = AXIS2_PLACEMENT_3D ( 'NONE', #516, #17, #244 ) ;
#90 = CARTESIAN_POINT ( 'NONE',  ( 0.000000000000000000, 0.000000000000000000, 0.000000000000000000 ) ) ;
#91 = AXIS2_PLACEMENT_3D ( 'NONE', #218, #258, #358 ) ;
#92 = ORIENTED_EDGE ( 'NONE', *, *, #200, .F. ) ;
#93 = ORIENTED_EDGE ( 'NONE', *, *, #481, .T. ) ;
#94 = CARTESIAN_POINT ( 'NONE',  ( 65.00000000000000000, -3.659266894335748121E-30, -3.000000000000012879 ) ) ;
#95 = DIRECTION ( 'NONE',  ( -0.000000000000000000, -1.836970198721029688E-16, 1.000000000000000000 ) ) ;
#96 = ORIENTED_EDGE ( 'NONE', *, *, #61, .T. ) ;
#97 = DIRECTION ( 'NONE',  ( 0.000000000000000000, -1.000000000000000000, -1.868163743359638428E-16 ) ) ;
#98 = AXIS2_PLACEMENT_3D ( 'NONE', #557, #239, #602 ) ;
#99 = CARTESIAN_POINT ( 'NONE',  ( 0.000000000000000000, 65.00000000000000000, -3.000000000000000888 ) ) ;
#100 = CIRCLE ( 'NONE', #146, 65.00000000000000000 ) ;
#101 = ORIENTED_EDGE ( 'NONE', *, *, #82, .T. ) ;
#102 = CYLINDRICAL_SURFACE ( 'NONE', #66, 195.0000000000000000 ) ;
#103 = AXIS2_PLACEMENT_3D ( 'NONE', #310, #418, #306 ) ;
#104 = FACE_OUTER_BOUND ( 'NONE', #327, .T. ) ;
#105 =( NAMED_UNIT ( * ) PLANE_ANGLE_UNIT ( ) SI_UNIT ( $, .RADIAN. ) );
#106 = ORIENTED_EDGE ( 'NONE', *, *, #402, .F. ) ;
#107 = EDGE_LOOP ( 'NONE', ( #273, #422, #49, #533 ) ) ;
#108 = DIRECTION ( 'NONE',  ( 0.000000000000000000, -1.000000000000000000, -1.868163743359638428E-16 ) ) ;
#109 = ORIENTED_EDGE ( 'NONE', *, *, #350, .T. ) ;
#110 = ORIENTED_EDGE ( 'NONE', *, *, #282, .T. ) ;
#111 = CARTESIAN_POINT ( 'NONE',  ( -195.0000000000000000, 3.659266894335748121E-30, -3.000000000000051958 ) ) ;
#112 = FACE_OUTER_BOUND ( 'NONE', #107, .T. ) ;
#113 = VECTOR ( 'NONE', #129, 1000.000000000000000 ) ;
#114 = ADVANCED_FACE ( 'NONE', ( #667 ), #288, .F. ) ;
#115 = CARTESIAN_POINT ( 'NONE',  ( 0.000000000000000000, 0.000000000000000000, 0.000000000000000000 ) ) ;
#116 = LINE ( 'NONE', #126, #545 ) ;
#117 = EDGE_LOOP ( 'NONE', ( #521, #592, #469, #106 ) ) ;
#118 = FILL_AREA_STYLE_COLOUR ( '', #334 ) ;
#119 = CARTESIAN_POINT ( 'NONE',  ( -65.00000000000000000, -7.966588320977875686E-31, 2.999999999999988898 ) ) ;
#120 = DIRECTION ( 'NONE',  ( 1.000000000000000000, 0.000000000000000000, 0.000000000000000000 ) ) ;
#121 = VERTEX_POINT ( 'NONE', #497 ) ;
#122 = SURFACE_SIDE_STYLE ('',( #448 ) ) ;
#123 = EDGE_CURVE ( 'NONE', #372, #342, #657, .T. ) ;
#124 = VECTOR ( 'NONE', #194, 1000.000000000000000 ) ;
#125 = VECTOR ( 'NONE', #519, 1000.000000000000000 ) ;
#126 = CARTESIAN_POINT ( 'NONE',  ( 0.000000000000000000, 65.00000000000000000, 2.999999999999996447 ) ) ;
#127 = CARTESIAN_POINT ( 'NONE',  ( 0.000000000000000000, 0.000000000000000000, 2.999999999999984457 ) ) ;
#128 = DIRECTION ( 'NONE',  ( 0.000000000000000000, -1.836970198721029688E-16, 1.000000000000000000 ) ) ;
#129 = DIRECTION ( 'NONE',  ( -0.000000000000000000, -1.836970198721029688E-16, 1.000000000000000000 ) ) ;
#130 = PRODUCT_DEFINITION_CONTEXT ( 'detailed design', #517, 'design' ) ;
#131 = VERTEX_POINT ( 'NONE', #176 ) ;
#132 = ADVANCED_FACE ( 'NONE', ( #112 ), #182, .T. ) ;
#133 = CARTESIAN_POINT ( 'NONE',  ( 195.0000000000000000, 0.000000000000000000, 2.999999999999999112 ) ) ;
#134 = ORIENTED_EDGE ( 'NONE', *, *, #562, .T. ) ;
#135 = ADVANCED_FACE ( 'NONE', ( #185 ), #331, .T. ) ;
#136 = AXIS2_PLACEMENT_3D ( 'NONE', #228, #333, #226 ) ;
#137 = CARTESIAN_POINT ( 'NONE',  ( 0.000000000000000000, 1.102182119232620080E-15, -3.000000000000012879 ) ) ;
#138 = CARTESIAN_POINT ( 'NONE',  ( -195.0000000000000000, 3.659266894335748121E-30, -3.000000000000051958 ) ) ;
#139 = DIRECTION ( 'NONE',  ( 1.000000000000000000, 0.000000000000000000, 0.000000000000000000 ) ) ;
#140 = ORIENTED_EDGE ( 'NONE', *, *, #654, .T. ) ;
#141 = CARTESIAN_POINT ( 'NONE',  ( 0.000000000000000000, -195.0000000000000000, 2.999999999999963141 ) ) ;
#142 = PLANE ( 'NONE',  #55 ) ;
#143 = AXIS2_PLACEMENT_3D ( 'NONE', #594, #586, #319 ) ;
#144 = CARTESIAN_POINT ( 'NONE',  ( 65.00000000000000000, 5.510910596163110263E-16, 2.999999999999988898 ) ) ;
#145 = SURFACE_SIDE_STYLE ('',( #426 ) ) ;
#146 = AXIS2_PLACEMENT_3D ( 'NONE', #495, #69, #374 ) ;
#147 = VERTEX_POINT ( 'NONE', #492 ) ;
#148 =( LENGTH_UNIT ( ) NAMED_UNIT ( * ) SI_UNIT ( .MILLI., .METRE. ) );
#149 = SURFACE_SIDE_STYLE ('',( #483 ) ) ;
#150 = ORIENTED_EDGE ( 'NONE', *, *, #688, .T. ) ;
#151 = DIRECTION ( 'NONE',  ( 0.000000000000000000, 1.000000000000000000, 0.000000000000000000 ) ) ;
#152 = DIRECTION ( 'NONE',  ( 0.000000000000000000, -1.000000000000000000, -1.868163743359638428E-16 ) ) ;
#153 = PLANE ( 'NONE',  #449 ) ;
#154 = VERTEX_POINT ( 'NONE', #279 ) ;
#155 = FACE_OUTER_BOUND ( 'NONE', #615, .T. ) ;
#156 = EDGE_CURVE ( 'NONE', #692, #75, #10, .T. ) ;
#157 = AXIS2_PLACEMENT_3D ( 'NONE', #259, #371, #316 ) ;
#158 = ORIENTED_EDGE ( 'NONE', *, *, #673, .F. ) ;
#159 = CIRCLE ( 'NONE', #554, 65.00000000000000000 ) ;
#160 = EDGE_LOOP ( 'NONE', ( #92, #267, #40, #352 ) ) ;
#161 = PRESENTATION_STYLE_ASSIGNMENT (( #425 ) ) ;
#162 =( LENGTH_UNIT ( ) NAMED_UNIT ( * ) SI_UNIT ( .MILLI., .METRE. ) );
#163 = ORIENTED_EDGE ( 'NONE', *, *, #397, .F. ) ;
#164 = CARTESIAN_POINT ( 'NONE',  ( 0.000000000000000000, 0.000000000000000000, -3.000000000000032419 ) ) ;
#165 = FACE_OUTER_BOUND ( 'NONE', #534, .T. ) ;
#166 = EDGE_CURVE ( 'NONE', #587, #303, #379, .T. ) ;
#167 = CARTESIAN_POINT ( 'NONE',  ( 0.000000000000000000, 0.000000000000000000, 2.999999999999984457 ) ) ;
#168 = EDGE_CURVE ( 'NONE', #507, #587, #6, .T. ) ;
#169 = APPLICATION_PROTOCOL_DEFINITION ( 'draft international standard', 'automotive_design', 1998, #517 ) ;
#170 = CARTESIAN_POINT ( 'NONE',  ( 0.000000000000000000, 0.000000000000000000, 2.999999999999999112 ) ) ;
#171 = VECTOR ( 'NONE', #490, 1000.000000000000000 ) ;
#172 = DIRECTION ( 'NONE',  ( 0.000000000000000000, 0.000000000000000000, -1.000000000000000000 ) ) ;
#173 = VECTOR ( 'NONE', #181, 1000.000000000000000 ) ;
#174 = COLOUR_RGB ( '',0.7921568627450980005, 0.8196078431372548767, 0.9333333333333333481 ) ;
#175 = FACE_OUTER_BOUND ( 'NONE', #274, .T. ) ;
#176 = CARTESIAN_POINT ( 'NONE',  ( 195.0000000000000000, 5.510910596163120124E-16, 2.999999999999980016 ) ) ;
#177 = ADVANCED_FACE ( 'NONE', ( #338 ), #4, .T. ) ;
#178 = CARTESIAN_POINT ( 'NONE',  ( 0.000000000000000000, -195.0000000000000000, 2.999999999999963141 ) ) ;
#179 = CARTESIAN_POINT ( 'NONE',  ( 0.000000000000000000, 0.000000000000000000, 2.999999999999984457 ) ) ;
#180 = EDGE_CURVE ( 'NONE', #372, #364, #37, .T. ) ;
#181 = DIRECTION ( 'NONE',  ( 0.000000000000000000, 1.836970198721029688E-16, -1.000000000000000000 ) ) ;
#182 = PLANE ( 'NONE',  #376 ) ;
#183 = MECHANICAL_DESIGN_GEOMETRIC_PRESENTATION_REPRESENTATION (  '', ( #438 ), #416 ) ;
#184 = DIRECTION ( 'NONE',  ( 0.000000000000000000, -1.000000000000000000, -1.868163743359638428E-16 ) ) ;
#185 = FACE_OUTER_BOUND ( 'NONE', #257, .T. ) ;
#186 = ORIENTED_EDGE ( 'NONE', *, *, #82, .F. ) ;
#187 = MANIFOLD_SOLID_BREP ( 'Split2[2]', #543 ) ;
#188 = CYLINDRICAL_SURFACE ( 'NONE', #197, 65.00000000000000000 ) ;
#189 = CARTESIAN_POINT ( 'NONE',  ( 0.000000000000000000, 0.000000000000000000, 2.999999999999984457 ) ) ;
#190 = EDGE_CURVE ( 'NONE', #691, #587, #240, .T. ) ;
#191 = UNCERTAINTY_MEASURE_WITH_UNIT (LENGTH_MEASURE( 1.000000000000000082E-05 ), #421, 'distance_accuracy_value', 'NONE');
#192 = ORIENTED_EDGE ( 'NONE', *, *, #452, .T. ) ;
#193 = EDGE_CURVE ( 'NONE', #131, #364, #575, .T. ) ;
#194 = DIRECTION ( 'NONE',  ( 0.000000000000000000, 1.836970198721029688E-16, -1.000000000000000000 ) ) ;
#195 = MECHANICAL_DESIGN_GEOMETRIC_PRESENTATION_REPRESENTATION (  '', ( #644 ), #675 ) ;
#196 =( GEOMETRIC_REPRESENTATION_CONTEXT ( 3 ) GLOBAL_UNCERTAINTY_ASSIGNED_CONTEXT ( ( #393 ) ) GLOBAL_UNIT_ASSIGNED_CONTEXT ( ( #696, #656, #659 ) ) REPRESENTATION_CONTEXT ( 'NONE', 'WORKASPACE' ) );
#197 = AXIS2_PLACEMENT_3D ( 'NONE', #674, #627, #574 ) ;
#198 = DIRECTION ( 'NONE',  ( 1.000000000000000000, -0.000000000000000000, 0.000000000000000000 ) ) ;
#199 = ORIENTED_EDGE ( 'NONE', *, *, #242, .F. ) ;
#200 = EDGE_CURVE ( 'NONE', #202, #432, #27, .T. ) ;
#201 = CARTESIAN_POINT ( 'NONE',  ( 0.000000000000000000, 0.000000000000000000, 2.999999999999999112 ) ) ;
#202 = VERTEX_POINT ( 'NONE', #138 ) ;
#203 = DIRECTION ( 'NONE',  ( 0.000000000000000000, -1.000000000000000000, -1.836970198721029688E-16 ) ) ;
#204 = CARTESIAN_POINT ( 'NONE',  ( 0.000000000000000000, -65.00000000000000000, 2.999999999999987121 ) ) ;
#205 = ORIENTED_EDGE ( 'NONE', *, *, #264, .F. ) ;
#206 = LINE ( 'NONE', #30, #208 ) ;
#207 = FILL_AREA_STYLE_COLOUR ( '', #430 ) ;
#208 = VECTOR ( 'NONE', #255, 1000.000000000000000 ) ;
#209 = EDGE_CURVE ( 'NONE', #51, #147, #628, .T. ) ;
#210 = VERTEX_POINT ( 'NONE', #345 ) ;
#211 = CARTESIAN_POINT ( 'NONE',  ( 0.000000000000000000, 1.102182119232620080E-15, -3.000000000000012879 ) ) ;
#212 = ORIENTED_EDGE ( 'NONE', *, *, #561, .F. ) ;
#213 = ADVANCED_FACE ( 'NONE', ( #512 ), #565, .F. ) ;
#214 = DIRECTION ( 'NONE',  ( -0.000000000000000000, -1.836970198721029688E-16, 1.000000000000000000 ) ) ;
#215 = SURFACE_STYLE_USAGE ( .BOTH. , #145 ) ;
#216 = ORIENTED_EDGE ( 'NONE', *, *, #481, .F. ) ;
#217 = ORIENTED_EDGE ( 'NONE', *, *, #658, .F. ) ;
#218 = CARTESIAN_POINT ( 'NONE',  ( 0.000000000000000000, 3.473226601247528493E-30, 2.999999999999980016 ) ) ;
#219 = CARTESIAN_POINT ( 'NONE',  ( 195.0000000000000000, 3.659266894335748121E-30, -3.000000000000051958 ) ) ;
#220 = AXIS2_PLACEMENT_3D ( 'NONE', #201, #289, #468 ) ;
#221 = EDGE_LOOP ( 'NONE', ( #309, #580, #408, #291 ) ) ;
#222 = MECHANICAL_DESIGN_GEOMETRIC_PRESENTATION_REPRESENTATION (  '', ( #463 ), #311 ) ;
#223 = VERTEX_POINT ( 'NONE', #559 ) ;
#224 = ADVANCED_FACE ( 'NONE', ( #31 ), #142, .F. ) ;
#225 = DIRECTION ( 'NONE',  ( 1.000000000000000000, 0.000000000000000000, 0.000000000000000000 ) ) ;
#226 = DIRECTION ( 'NONE',  ( 0.000000000000000000, -1.000000000000000000, -1.845923698795833165E-16 ) ) ;
#227 = PLANE ( 'NONE',  #275 ) ;
#228 = CARTESIAN_POINT ( 'NONE',  ( 0.000000000000000000, 1.102182119232627180E-15, -3.000000000000051958 ) ) ;
#229 = CARTESIAN_POINT ( 'NONE',  ( 0.000000000000000000, 0.000000000000000000, 0.000000000000000000 ) ) ;
#230 = FACE_OUTER_BOUND ( 'NONE', #510, .T. ) ;
#231 = VECTOR ( 'NONE', #325, 1000.000000000000000 ) ;
#232 = EDGE_LOOP ( 'NONE', ( #44, #192, #503, #477 ) ) ;
#233 = PRESENTATION_STYLE_ASSIGNMENT (( #70 ) ) ;
#234 = VECTOR ( 'NONE', #609, 1000.000000000000000 ) ;
#235 = CIRCLE ( 'NONE', #103, 65.00000000000000000 ) ;
#236 = DIRECTION ( 'NONE',  ( 1.000000000000000000, -0.000000000000000000, 0.000000000000000000 ) ) ;
#237 = EDGE_CURVE ( 'NONE', #432, #318, #39, .T. ) ;
#238 = DIRECTION ( 'NONE',  ( 0.000000000000000000, 1.000000000000000000, 1.836970198721029688E-16 ) ) ;
#239 = DIRECTION ( 'NONE',  ( -0.000000000000000000, -1.836970198721029688E-16, 1.000000000000000000 ) ) ;
#240 = CIRCLE ( 'NONE', #698, 195.0000000000000000 ) ;
#241 = AXIS2_PLACEMENT_3D ( 'NONE', #137, #348, #184 ) ;
#242 = EDGE_CURVE ( 'NONE', #465, #396, #460, .T. ) ;
#243 = DIRECTION ( 'NONE',  ( 0.000000000000000000, 1.000000000000000000, 0.000000000000000000 ) ) ;
#244 = DIRECTION ( 'NONE',  ( 0.000000000000000000, 1.000000000000000000, 1.836970198721029688E-16 ) ) ;
#245 = ADVANCED_FACE ( 'NONE', ( #301 ), #456, .T. ) ;
#246 = ORIENTED_EDGE ( 'NONE', *, *, #504, .T. ) ;
#247 = CARTESIAN_POINT ( 'NONE',  ( 0.000000000000000000, -195.0000000000000000, 2.999999999999944045 ) ) ;
#248 = LINE ( 'NONE', #558, #57 ) ;
#249 = CARTESIAN_POINT ( 'NONE',  ( 0.000000000000000000, 65.00000000000000000, 2.999999999999996447 ) ) ;
#250 = AXIS2_PLACEMENT_3D ( 'NONE', #599, #607, #444 ) ;
#251 = VECTOR ( 'NONE', #506, 1000.000000000000000 ) ;
#252 = DIRECTION ( 'NONE',  ( 0.000000000000000000, -1.000000000000000000, -1.868163743359638428E-16 ) ) ;
#253 = CARTESIAN_POINT ( 'NONE',  ( 0.000000000000000000, 3.473226601247528493E-30, 2.999999999999980016 ) ) ;
#254 = ORIENTED_EDGE ( 'NONE', *, *, #623, .T. ) ;
#255 = DIRECTION ( 'NONE',  ( -0.000000000000000000, -1.836970198721029688E-16, 1.000000000000000000 ) ) ;
#256 = DIRECTION ( 'NONE',  ( 0.000000000000000000, -1.000000000000000000, -1.845923698795833165E-16 ) ) ;
#257 = EDGE_LOOP ( 'NONE', ( #458, #642, #461, #314 ) ) ;
#258 = DIRECTION ( 'NONE',  ( -0.000000000000000000, -1.836970198721029688E-16, 1.000000000000000000 ) ) ;
#259 = CARTESIAN_POINT ( 'NONE',  ( 0.000000000000000000, 65.00000000000000000, 2.999999999999996447 ) ) ;
#260 = ORIENTED_EDGE ( 'NONE', *, *, #402, .T. ) ;
#261 = CARTESIAN_POINT ( 'NONE',  ( -65.00000000000000000, 0.000000000000000000, 2.999999999999999112 ) ) ;
#262 = AXIS2_PLACEMENT_3D ( 'NONE', #71, #120, #64 ) ;
#263 = VECTOR ( 'NONE', #491, 1000.000000000000000 ) ;
#264 = EDGE_CURVE ( 'NONE', #202, #210, #462, .T. ) ;
#265 = FACE_OUTER_BOUND ( 'NONE', #41, .T. ) ;
#266 = EDGE_LOOP ( 'NONE', ( #216, #21, #646, #343 ) ) ;
#267 = ORIENTED_EDGE ( 'NONE', *, *, #264, .T. ) ;
#268 = CARTESIAN_POINT ( 'NONE',  ( 0.000000000000000000, 195.0000000000000000, -2.999999999999996447 ) ) ;
#269 = PLANE ( 'NONE',  #687 ) ;
#270 = VERTEX_POINT ( 'NONE', #676 ) ;
#271 = DIRECTION ( 'NONE',  ( 1.000000000000000000, -0.000000000000000000, 0.000000000000000000 ) ) ;
#272 = FILL_AREA_STYLE ('',( #207 ) ) ;
#273 = ORIENTED_EDGE ( 'NONE', *, *, #307, .T. ) ;
#274 = EDGE_LOOP ( 'NONE', ( #246, #694, #260, #134 ) ) ;
#275 = AXIS2_PLACEMENT_3D ( 'NONE', #596, #151, #650 ) ;
#276 = VERTEX_POINT ( 'NONE', #84 ) ;
#277 = SHAPE_DEFINITION_REPRESENTATION ( #681, #620 ) ;
#278 = LINE ( 'NONE', #387, #234 ) ;
#279 = CARTESIAN_POINT ( 'NONE',  ( 0.000000000000000000, -65.00000000000000000, 2.999999999999976463 ) ) ;
#280 = DIRECTION ( 'NONE',  ( 0.000000000000000000, -1.000000000000000000, -1.836970198721029688E-16 ) ) ;
#281 = CARTESIAN_POINT ( 'NONE',  ( -195.0000000000000000, 5.510910596163120124E-16, 2.999999999999980016 ) ) ;
#282 = EDGE_CURVE ( 'NONE', #147, #131, #647, .T. ) ;
#283 = DIRECTION ( 'NONE',  ( 0.000000000000000000, -1.836970198721029688E-16, 1.000000000000000000 ) ) ;
#284 = VECTOR ( 'NONE', #567, 1000.000000000000000 ) ;
#285 = DIRECTION ( 'NONE',  ( 0.000000000000000000, 1.836970198721029688E-16, -1.000000000000000000 ) ) ;
#286 = CARTESIAN_POINT ( 'NONE',  ( -195.0000000000000000, 0.000000000000000000, 2.999999999999999112 ) ) ;
#287 = FACE_OUTER_BOUND ( 'NONE', #683, .T. ) ;
#288 = PLANE ( 'NONE',  #414 ) ;
#289 = DIRECTION ( 'NONE',  ( -0.000000000000000000, -1.836970198721029688E-16, 1.000000000000000000 ) ) ;
#290 = DIRECTION ( 'NONE',  ( 0.000000000000000000, 1.836970198721029688E-16, -1.000000000000000000 ) ) ;
#291 = ORIENTED_EDGE ( 'NONE', *, *, #688, .F. ) ;
#292 = DIRECTION ( 'NONE',  ( 0.000000000000000000, -1.000000000000000000, -1.845923698795833165E-16 ) ) ;
#293 = PRODUCT_RELATED_PRODUCT_CATEGORY ( 'part', '', ( #399 ) ) ;
#294 = DIRECTION ( 'NONE',  ( -1.000000000000000000, 0.000000000000000000, 0.000000000000000000 ) ) ;
#295 = FACE_OUTER_BOUND ( 'NONE', #315, .T. ) ;
#296 = ADVANCED_FACE ( 'NONE', ( #295 ), #86, .F. ) ;
#297 = VERTEX_POINT ( 'NONE', #404 ) ;
#298 = AXIS2_PLACEMENT_3D ( 'NONE', #351, #509, #571 ) ;
#299 = SURFACE_STYLE_FILL_AREA ( #684 ) ;
#300 =( GEOMETRIC_REPRESENTATION_CONTEXT ( 3 ) GLOBAL_UNCERTAINTY_ASSIGNED_CONTEXT ( ( #191 ) ) GLOBAL_UNIT_ASSIGNED_CONTEXT ( ( #421, #42, #381 ) ) REPRESENTATION_CONTEXT ( 'NONE', 'WORKASPACE' ) );
#301 = FACE_OUTER_BOUND ( 'NONE', #678, .T. ) ;
#302 = CARTESIAN_POINT ( 'NONE',  ( 0.000000000000000000, 1.874735149303851666E-30, 2.999999999999988898 ) ) ;
#303 = VERTEX_POINT ( 'NONE', #23 ) ;
#304 = CARTESIAN_POINT ( 'NONE',  ( 0.000000000000000000, 195.0000000000000000, 3.000000000000015987 ) ) ;
#305 = ADVANCED_FACE ( 'NONE', ( #407 ), #354, .F. ) ;
#306 = DIRECTION ( 'NONE',  ( 0.000000000000000000, -1.000000000000000000, -1.868163743359638428E-16 ) ) ;
#307 = EDGE_CURVE ( 'NONE', #210, #81, #453, .T. ) ;
#308 = ORIENTED_EDGE ( 'NONE', *, *, #237, .T. ) ;
#309 = ORIENTED_EDGE ( 'NONE', *, *, #452, .F. ) ;
#310 = CARTESIAN_POINT ( 'NONE',  ( 0.000000000000000000, 1.102182119232620080E-15, -3.000000000000012879 ) ) ;
#311 =( GEOMETRIC_REPRESENTATION_CONTEXT ( 3 ) GLOBAL_UNCERTAINTY_ASSIGNED_CONTEXT ( ( #80 ) ) GLOBAL_UNIT_ASSIGNED_CONTEXT ( ( #148, #515, #409 ) ) REPRESENTATION_CONTEXT ( 'NONE', 'WORKASPACE' ) );
#312 = CARTESIAN_POINT ( 'NONE',  ( 0.000000000000000000, 195.0000000000000000, -2.999999999999996447 ) ) ;
#313 = AXIS2_PLACEMENT_3D ( 'NONE', #115, #442, #225 ) ;
#314 = ORIENTED_EDGE ( 'NONE', *, *, #180, .T. ) ;
#315 = EDGE_LOOP ( 'NONE', ( #420, #217, #2, #346 ) ) ;
#316 = DIRECTION ( 'NONE',  ( 0.000000000000000000, 1.000000000000000000, 1.836970198721029688E-16 ) ) ;
#317 = EDGE_CURVE ( 'NONE', #121, #318, #395, .T. ) ;
#318 = VERTEX_POINT ( 'NONE', #247 ) ;
#319 = DIRECTION ( 'NONE',  ( 0.000000000000000000, -1.000000000000000000, -1.845923698795833165E-16 ) ) ;
#320 = ORIENTED_EDGE ( 'NONE', *, *, #166, .F. ) ;
#321 = ORIENTED_EDGE ( 'NONE', *, *, #317, .F. ) ;
#322 = AXIS2_PLACEMENT_3D ( 'NONE', #476, #411, #33 ) ;
#323 = DIRECTION ( 'NONE',  ( 0.000000000000000000, 0.000000000000000000, -1.000000000000000000 ) ) ;
#324 = AXIS2_PLACEMENT_3D ( 'NONE', #612, #128, #78 ) ;
#325 = DIRECTION ( 'NONE',  ( 1.000000000000000000, -0.000000000000000000, 0.000000000000000000 ) ) ;
#326 = CARTESIAN_POINT ( 'NONE',  ( 0.000000000000000000, 0.000000000000000000, 0.000000000000000000 ) ) ;
#327 = EDGE_LOOP ( 'NONE', ( #454, #96, #158, #368 ) ) ;
#328 =( LENGTH_UNIT ( ) NAMED_UNIT ( * ) SI_UNIT ( .MILLI., .METRE. ) );
#329 = ADVANCED_FACE ( 'NONE', ( #671 ), #398, .F. ) ;
#330 = LINE ( 'NONE', #606, #8 ) ;
#331 = CYLINDRICAL_SURFACE ( 'NONE', #250, 195.0000000000000000 ) ;
#332 = APPLICATION_PROTOCOL_DEFINITION ( 'draft international standard', 'automotive_design', 1998, #572 ) ;
#333 = DIRECTION ( 'NONE',  ( -0.000000000000000000, -1.836970198721029688E-16, 1.000000000000000000 ) ) ;
#334 = COLOUR_RGB ( '',0.7921568627450980005, 0.8196078431372548767, 0.9333333333333333481 ) ;
#335 = CARTESIAN_POINT ( 'NONE',  ( 0.000000000000000000, 195.0000000000000000, -2.999999999999996447 ) ) ;
#336 = VECTOR ( 'NONE', #378, 1000.000000000000000 ) ;
#337 = DIRECTION ( 'NONE',  ( 0.000000000000000000, -1.000000000000000000, -1.836970198721029688E-16 ) ) ;
#338 = FACE_OUTER_BOUND ( 'NONE', #232, .T. ) ;
#339 = ADVANCED_FACE ( 'NONE', ( #265 ), #153, .F. ) ;
#340 = UNCERTAINTY_MEASURE_WITH_UNIT (LENGTH_MEASURE( 1.000000000000000082E-05 ), #162, 'distance_accuracy_value', 'NONE');
#341 = DIRECTION ( 'NONE',  ( -0.000000000000000000, -1.836970198721029688E-16, 1.000000000000000000 ) ) ;
#342 = VERTEX_POINT ( 'NONE', #363 ) ;
#343 = ORIENTED_EDGE ( 'NONE', *, *, #242, .T. ) ;
#344 = CARTESIAN_POINT ( 'NONE',  ( 0.000000000000000000, 0.000000000000000000, -3.000000000000032419 ) ) ;
#345 = CARTESIAN_POINT ( 'NONE',  ( 0.000000000000000000, -195.0000000000000000, -3.000000000000087930 ) ) ;
#346 = ORIENTED_EDGE ( 'NONE', *, *, #63, .T. ) ;
#347 = CIRCLE ( 'NONE', #136, 195.0000000000000000 ) ;
#348 = DIRECTION ( 'NONE',  ( -0.000000000000000000, -1.836970198721029688E-16, 1.000000000000000000 ) ) ;
#349 = DIRECTION ( 'NONE',  ( 0.000000000000000000, 0.000000000000000000, -1.000000000000000000 ) ) ;
#350 = EDGE_CURVE ( 'NONE', #270, #465, #471, .T. ) ;
#351 = CARTESIAN_POINT ( 'NONE',  ( 0.000000000000000000, 1.102182119232627180E-15, -3.000000000000051958 ) ) ;
#352 = ORIENTED_EDGE ( 'NONE', *, *, #237, .F. ) ;
#353 = FACE_OUTER_BOUND ( 'NONE', #221, .T. ) ;
#354 = PLANE ( 'NONE',  #89 ) ;
#355 = ORIENTED_EDGE ( 'NONE', *, *, #614, .F. ) ;
#356 = AXIS2_PLACEMENT_3D ( 'NONE', #682, #341, #568 ) ;
#357 = CIRCLE ( 'NONE', #241, 65.00000000000000000 ) ;
#358 = DIRECTION ( 'NONE',  ( 0.000000000000000000, -1.000000000000000000, -1.845923698795833165E-16 ) ) ;
#359 = ORIENTED_EDGE ( 'NONE', *, *, #504, .F. ) ;
#360 = PRESENTATION_STYLE_ASSIGNMENT (( #645 ) ) ;
#361 = ORIENTED_EDGE ( 'NONE', *, *, #489, .T. ) ;
#362 = LINE ( 'NONE', #261, #631 ) ;
#363 = CARTESIAN_POINT ( 'NONE',  ( 0.000000000000000000, -65.00000000000000000, -3.000000000000025313 ) ) ;
#364 = VERTEX_POINT ( 'NONE', #219 ) ;
#365 = CARTESIAN_POINT ( 'NONE',  ( 195.0000000000000000, 3.659266894335748121E-30, -3.000000000000051958 ) ) ;
#366 = CYLINDRICAL_SURFACE ( 'NONE', #440, 65.00000000000000000 ) ;
#367 = AXIS2_PLACEMENT_3D ( 'NONE', #499, #403, #252 ) ;
#368 = ORIENTED_EDGE ( 'NONE', *, *, #428, .F. ) ;
#369 = ORIENTED_EDGE ( 'NONE', *, *, #614, .T. ) ;
#370 = FACE_OUTER_BOUND ( 'NONE', #117, .T. ) ;
#371 = DIRECTION ( 'NONE',  ( 0.000000000000000000, 1.836970198721029688E-16, -1.000000000000000000 ) ) ;
#372 = VERTEX_POINT ( 'NONE', #539 ) ;
#373 = DIRECTION ( 'NONE',  ( -1.000000000000000000, 0.000000000000000000, 0.000000000000000000 ) ) ;
#374 = DIRECTION ( 'NONE',  ( 0.000000000000000000, -1.000000000000000000, -1.868163743359638428E-16 ) ) ;
#375 = ORIENTED_EDGE ( 'NONE', *, *, #658, .T. ) ;
#376 = AXIS2_PLACEMENT_3D ( 'NONE', #388, #604, #172 ) ;
#377 = PRESENTATION_LAYER_ASSIGNMENT (  '', '', ( #501 ) ) ;
#378 = DIRECTION ( 'NONE',  ( -1.000000000000000000, 0.000000000000000000, 0.000000000000000000 ) ) ;
#379 = LINE ( 'NONE', #127, #231 ) ;
#380 = EDGE_CURVE ( 'NONE', #342, #154, #583, .T. ) ;
#381 =( NAMED_UNIT ( * ) SI_UNIT ( $, .STERADIAN. ) SOLID_ANGLE_UNIT ( ) );
#382 = FACE_OUTER_BOUND ( 'NONE', #626, .T. ) ;
#383 = CARTESIAN_POINT ( 'NONE',  ( 0.000000000000000000, 3.473226601247528493E-30, 2.999999999999980016 ) ) ;
#384 = LINE ( 'NONE', #178, #173 ) ;
#385 = FILL_AREA_STYLE ('',( #118 ) ) ;
#386 = EDGE_CURVE ( 'NONE', #32, #507, #544, .T. ) ;
#387 = CARTESIAN_POINT ( 'NONE',  ( 195.0000000000000000, 0.000000000000000000, 2.999999999999999112 ) ) ;
#388 = CARTESIAN_POINT ( 'NONE',  ( 0.000000000000000000, 0.000000000000000000, 0.000000000000000000 ) ) ;
#389 = AXIS2_PLACEMENT_3D ( 'NONE', #302, #95, #108 ) ;
#390 = CIRCLE ( 'NONE', #367, 65.00000000000000000 ) ;
#391 = PLANE ( 'NONE',  #324 ) ;
#392 = DIRECTION ( 'NONE',  ( -0.000000000000000000, -1.836970198721029688E-16, 1.000000000000000000 ) ) ;
#393 = UNCERTAINTY_MEASURE_WITH_UNIT (LENGTH_MEASURE( 1.000000000000000082E-05 ), #696, 'distance_accuracy_value', 'NONE');
#394 = ORIENTED_EDGE ( 'NONE', *, *, #193, .T. ) ;
#395 = LINE ( 'NONE', #618, #56 ) ;
#396 = VERTEX_POINT ( 'NONE', #686 ) ;
#397 = EDGE_CURVE ( 'NONE', #297, #303, #633, .T. ) ;
#398 = PLANE ( 'NONE',  #157 ) ;
#399 = PRODUCT ( 'fin', 'fin', '', ( #549 ) ) ;
#400 = CIRCLE ( 'NONE', #589, 65.00000000000000000 ) ;
#401 = VERTEX_POINT ( 'NONE', #99 ) ;
#402 = EDGE_CURVE ( 'NONE', #401, #32, #632, .T. ) ;
#403 = DIRECTION ( 'NONE',  ( -0.000000000000000000, -1.836970198721029688E-16, 1.000000000000000000 ) ) ;
#404 = CARTESIAN_POINT ( 'NONE',  ( 0.000000000000000000, 65.00000000000000000, 3.000000000000000888 ) ) ;
#405 = ORIENTED_EDGE ( 'NONE', *, *, #307, .F. ) ;
#406 = CARTESIAN_POINT ( 'NONE',  ( 0.000000000000000000, 65.00000000000000000, 2.999999999999996447 ) ) ;
#407 = FACE_OUTER_BOUND ( 'NONE', #591, .T. ) ;
#408 = ORIENTED_EDGE ( 'NONE', *, *, #581, .F. ) ;
#409 =( NAMED_UNIT ( * ) SI_UNIT ( $, .STERADIAN. ) SOLID_ANGLE_UNIT ( ) );
#410 = ADVANCED_FACE ( 'NONE', ( #532 ), #536, .T. ) ;
#411 = DIRECTION ( 'NONE',  ( -0.000000000000000000, -1.836970198721029688E-16, 1.000000000000000000 ) ) ;
#412 = PRODUCT_DEFINITION ( 'UNKNOWN', '', #79, #130 ) ;
#413 = ORIENTED_EDGE ( 'NONE', *, *, #50, .F. ) ;
#414 = AXIS2_PLACEMENT_3D ( 'NONE', #335, #283, #280 ) ;
#415 = MANIFOLD_SOLID_BREP ( 'Split2[3]', #429 ) ;
#416 =( GEOMETRIC_REPRESENTATION_CONTEXT ( 3 ) GLOBAL_UNCERTAINTY_ASSIGNED_CONTEXT ( ( #340 ) ) GLOBAL_UNIT_ASSIGNED_CONTEXT ( ( #162, #105, #579 ) ) REPRESENTATION_CONTEXT ( 'NONE', 'WORKASPACE' ) );
#417 = MANIFOLD_SOLID_BREP ( 'Split2[4]', #87 ) ;
#418 = DIRECTION ( 'NONE',  ( -0.000000000000000000, -1.836970198721029688E-16, 1.000000000000000000 ) ) ;
#419 = VERTEX_POINT ( 'NONE', #9 ) ;
#420 = ORIENTED_EDGE ( 'NONE', *, *, #209, .F. ) ;
#421 =( LENGTH_UNIT ( ) NAMED_UNIT ( * ) SI_UNIT ( .MILLI., .METRE. ) );
#422 = ORIENTED_EDGE ( 'NONE', *, *, #581, .T. ) ;
#423 = ORIENTED_EDGE ( 'NONE', *, *, #386, .T. ) ;
#424 = ADVANCED_FACE ( 'NONE', ( #636 ), #269, .F. ) ;
#425 = SURFACE_STYLE_USAGE ( .BOTH. , #590 ) ;
#426 = SURFACE_STYLE_FILL_AREA ( #272 ) ;
#427 = ORIENTED_EDGE ( 'NONE', *, *, #685, .T. ) ;
#428 = EDGE_CURVE ( 'NONE', #297, #401, #330, .T. ) ;
#429 = CLOSED_SHELL ( 'NONE', ( #46, #679, #665, #245, #466, #213 ) ) ;
#430 = COLOUR_RGB ( '',0.7921568627450980005, 0.8196078431372548767, 0.9333333333333333481 ) ;
#431 = DIRECTION ( 'NONE',  ( -0.000000000000000000, -1.836970198721029688E-16, 1.000000000000000000 ) ) ;
#432 = VERTEX_POINT ( 'NONE', #281 ) ;
#433 = ORIENTED_EDGE ( 'NONE', *, *, #685, .F. ) ;
#434 = CYLINDRICAL_SURFACE ( 'NONE', #486, 65.00000000000000000 ) ;
#435 = DIRECTION ( 'NONE',  ( 0.000000000000000000, 1.836970198721029688E-16, -1.000000000000000000 ) ) ;
#436 = ADVANCED_FACE ( 'NONE', ( #287 ), #651, .F. ) ;
#437 = DIRECTION ( 'NONE',  ( 0.000000000000000000, 1.000000000000000000, 0.000000000000000000 ) ) ;
#438 = STYLED_ITEM ( 'NONE', ( #38 ), #415 ) ;
#439 = PLANE ( 'NONE',  #262 ) ;
#440 = AXIS2_PLACEMENT_3D ( 'NONE', #475, #431, #152 ) ;
#441 =( NAMED_UNIT ( * ) SI_UNIT ( $, .STERADIAN. ) SOLID_ANGLE_UNIT ( ) );
#442 = DIRECTION ( 'NONE',  ( 0.000000000000000000, 0.000000000000000000, 1.000000000000000000 ) ) ;
#443 = LINE ( 'NONE', #603, #336 ) ;
#444 = DIRECTION ( 'NONE',  ( 0.000000000000000000, -1.000000000000000000, -1.845923698795833165E-16 ) ) ;
#445 = EDGE_CURVE ( 'NONE', #364, #51, #443, .T. ) ;
#446 = CARTESIAN_POINT ( 'NONE',  ( -65.00000000000000000, 0.000000000000000000, 2.999999999999999112 ) ) ;
#447 = CARTESIAN_POINT ( 'NONE',  ( 0.000000000000000000, -65.00000000000000000, -3.000000000000025313 ) ) ;
#448 = SURFACE_STYLE_FILL_AREA ( #385 ) ;
#449 = AXIS2_PLACEMENT_3D ( 'NONE', #524, #693, #487 ) ;
#450 = AXIS2_PLACEMENT_3D ( 'NONE', #211, #214, #530 ) ;
#451 = LINE ( 'NONE', #406, #284 ) ;
#452 = EDGE_CURVE ( 'NONE', #538, #518, #1, .T. ) ;
#453 = LINE ( 'NONE', #669, #251 ) ;
#454 = ORIENTED_EDGE ( 'NONE', *, *, #397, .T. ) ;
#455 = LINE ( 'NONE', #141, #677 ) ;
#456 = CYLINDRICAL_SURFACE ( 'NONE', #220, 195.0000000000000000 ) ;
#457 = EDGE_CURVE ( 'NONE', #318, #210, #384, .T. ) ;
#458 = ORIENTED_EDGE ( 'NONE', *, *, #193, .F. ) ;
#459 = DIRECTION ( 'NONE',  ( 0.000000000000000000, 1.836970198721029688E-16, -1.000000000000000000 ) ) ;
#460 = LINE ( 'NONE', #680, #494 ) ;
#461 = ORIENTED_EDGE ( 'NONE', *, *, #597, .T. ) ;
#462 = CIRCLE ( 'NONE', #298, 195.0000000000000000 ) ;
#463 = STYLED_ITEM ( 'NONE', ( #161 ), #649 ) ;
#464 = DIRECTION ( 'NONE',  ( -0.000000000000000000, -1.836970198721029688E-16, 1.000000000000000000 ) ) ;
#465 = VERTEX_POINT ( 'NONE', #662 ) ;
#466 = ADVANCED_FACE ( 'NONE', ( #175 ), #439, .T. ) ;
#467 = CARTESIAN_POINT ( 'NONE',  ( 0.000000000000000000, 195.0000000000000000, 3.000000000000015987 ) ) ;
#468 = DIRECTION ( 'NONE',  ( 0.000000000000000000, -1.000000000000000000, -1.845923698795833165E-16 ) ) ;
#469 = ORIENTED_EDGE ( 'NONE', *, *, #386, .F. ) ;
#470 = DIRECTION ( 'NONE',  ( -0.000000000000000000, -1.836970198721029688E-16, 1.000000000000000000 ) ) ;
#471 = LINE ( 'NONE', #479, #577 ) ;
#472 = ORIENTED_EDGE ( 'NONE', *, *, #282, .F. ) ;
#473 = VECTOR ( 'NONE', #236, 1000.000000000000000 ) ;
#474 = VECTOR ( 'NONE', #435, 1000.000000000000000 ) ;
#475 = CARTESIAN_POINT ( 'NONE',  ( 0.000000000000000000, 0.000000000000000000, 2.999999999999999112 ) ) ;
#476 = CARTESIAN_POINT ( 'NONE',  ( 0.000000000000000000, 0.000000000000000000, 2.999999999999999112 ) ) ;
#477 = ORIENTED_EDGE ( 'NONE', *, *, #200, .T. ) ;
#478 = EDGE_LOOP ( 'NONE', ( #413, #308, #321, #488 ) ) ;
#479 = CARTESIAN_POINT ( 'NONE',  ( 0.000000000000000000, 65.00000000000000000, 3.000000000000011546 ) ) ;
#480 = ORIENTED_EDGE ( 'NONE', *, *, #166, .T. ) ;
#481 = EDGE_CURVE ( 'NONE', #73, #396, #347, .T. ) ;
#482 = EDGE_LOOP ( 'NONE', ( #584, #485, #640, #433 ) ) ;
#483 = SURFACE_STYLE_FILL_AREA ( #48 ) ;
#484 = EDGE_LOOP ( 'NONE', ( #560, #537, #641, #59 ) ) ;
#485 = ORIENTED_EDGE ( 'NONE', *, *, #489, .F. ) ;
#486 = AXIS2_PLACEMENT_3D ( 'NONE', #170, #601, #553 ) ;
#487 = DIRECTION ( 'NONE',  ( 0.000000000000000000, -1.000000000000000000, -1.836970198721029688E-16 ) ) ;
#488 = ORIENTED_EDGE ( 'NONE', *, *, #500, .F. ) ;
#489 = EDGE_CURVE ( 'NONE', #75, #73, #278, .T. ) ;
#490 = DIRECTION ( 'NONE',  ( -0.000000000000000000, -1.836970198721029688E-16, 1.000000000000000000 ) ) ;
#491 = DIRECTION ( 'NONE',  ( -0.000000000000000000, -1.836970198721029688E-16, 1.000000000000000000 ) ) ;
#492 = CARTESIAN_POINT ( 'NONE',  ( 65.00000000000000000, 5.510910596163110263E-16, 2.999999999999988898 ) ) ;
#493 = PRESENTATION_LAYER_ASSIGNMENT (  '', '', ( #644 ) ) ;
#494 = VECTOR ( 'NONE', #625, 1000.000000000000000 ) ;
#495 = CARTESIAN_POINT ( 'NONE',  ( 0.000000000000000000, 1.874735149303851666E-30, 2.999999999999988898 ) ) ;
#496 = AXIS2_PLACEMENT_3D ( 'NONE', #268, #593, #203 ) ;
#497 = CARTESIAN_POINT ( 'NONE',  ( 0.000000000000000000, -65.00000000000000000, 2.999999999999976463 ) ) ;
#498 = ADVANCED_FACE ( 'NONE', ( #382 ), #434, .F. ) ;
#499 = CARTESIAN_POINT ( 'NONE',  ( 0.000000000000000000, 1.874735149303851666E-30, 2.999999999999988898 ) ) ;
#500 = EDGE_CURVE ( 'NONE', #538, #121, #100, .T. ) ;
#501 = STYLED_ITEM ( 'NONE', ( #360 ), #417 ) ;
#502 = CARTESIAN_POINT ( 'NONE',  ( 65.00000000000000000, 0.000000000000000000, 2.999999999999999112 ) ) ;
#503 = ORIENTED_EDGE ( 'NONE', *, *, #24, .T. ) ;
#504 = EDGE_CURVE ( 'NONE', #691, #297, #116, .T. ) ;
#505 = DIRECTION ( 'NONE',  ( -0.000000000000000000, -1.836970198721029688E-16, 1.000000000000000000 ) ) ;
#506 = DIRECTION ( 'NONE',  ( 0.000000000000000000, 1.000000000000000000, 1.836970198721029688E-16 ) ) ;
#507 = VERTEX_POINT ( 'NONE', #111 ) ;
#508 = CARTESIAN_POINT ( 'NONE',  ( 0.000000000000000000, 195.0000000000000000, 3.000000000000035083 ) ) ;
#509 = DIRECTION ( 'NONE',  ( -0.000000000000000000, -1.836970198721029688E-16, 1.000000000000000000 ) ) ;
#510 = EDGE_LOOP ( 'NONE', ( #18, #634, #110, #394 ) ) ;
#511 = FACE_OUTER_BOUND ( 'NONE', #573, .T. ) ;
#512 = FACE_OUTER_BOUND ( 'NONE', #629, .T. ) ;
#513 = AXIS2_PLACEMENT_3D ( 'NONE', #253, #74, #256 ) ;
#514 = VECTOR ( 'NONE', #19, 1000.000000000000000 ) ;
#515 =( NAMED_UNIT ( * ) PLANE_ANGLE_UNIT ( ) SI_UNIT ( $, .RADIAN. ) );
#516 = CARTESIAN_POINT ( 'NONE',  ( 0.000000000000000000, 65.00000000000000000, 2.999999999999996447 ) ) ;
#517 = APPLICATION_CONTEXT ( 'automotive_design' ) ;
#518 = VERTEX_POINT ( 'NONE', #648 ) ;
#519 = DIRECTION ( 'NONE',  ( -1.000000000000000000, 0.000000000000000000, 0.000000000000000000 ) ) ;
#520 = DIRECTION ( 'NONE',  ( 0.000000000000000000, 1.836970198721029688E-16, -1.000000000000000000 ) ) ;
#521 = ORIENTED_EDGE ( 'NONE', *, *, #673, .T. ) ;
#522 = CARTESIAN_POINT ( 'NONE',  ( 0.000000000000000000, 1.874735149303851666E-30, 2.999999999999988898 ) ) ;
#523 = ADVANCED_FACE ( 'NONE', ( #165 ), #5, .F. ) ;
#524 = CARTESIAN_POINT ( 'NONE',  ( 0.000000000000000000, 195.0000000000000000, -2.999999999999996447 ) ) ;
#525 = ORIENTED_EDGE ( 'NONE', *, *, #555, .F. ) ;
#526 = FACE_OUTER_BOUND ( 'NONE', #595, .T. ) ;
#527 = AXIS2_PLACEMENT_3D ( 'NONE', #546, #72, #65 ) ;
#528 = MECHANICAL_DESIGN_GEOMETRIC_PRESENTATION_REPRESENTATION (  '', ( #501 ), #196 ) ;
#529 = AXIS2_PLACEMENT_3D ( 'NONE', #326, #547, #323 ) ;
#530 = DIRECTION ( 'NONE',  ( 0.000000000000000000, -1.000000000000000000, -1.868163743359638428E-16 ) ) ;
#531 = EDGE_CURVE ( 'NONE', #396, #53, #62, .T. ) ;
#532 = FACE_OUTER_BOUND ( 'NONE', #160, .T. ) ;
#533 = ORIENTED_EDGE ( 'NONE', *, *, #457, .T. ) ;
#534 = EDGE_LOOP ( 'NONE', ( #212, #643, #199, #576 ) ) ;
#535 = PLANE ( 'NONE',  #496 ) ;
#536 = CYLINDRICAL_SURFACE ( 'NONE', #322, 195.0000000000000000 ) ;
#537 = ORIENTED_EDGE ( 'NONE', *, *, #597, .F. ) ;
#538 = VERTEX_POINT ( 'NONE', #119 ) ;
#539 = CARTESIAN_POINT ( 'NONE',  ( 0.000000000000000000, -195.0000000000000000, -3.000000000000087930 ) ) ;
#540 = ORIENTED_EDGE ( 'NONE', *, *, #123, .T. ) ;
#541 = LINE ( 'NONE', #164, #7 ) ;
#542 = ADVANCED_FACE ( 'NONE', ( #230 ), #88, .T. ) ;
#543 = CLOSED_SHELL ( 'NONE', ( #436, #296, #135, #638, #224, #542 ) ) ;
#544 = CIRCLE ( 'NONE', #143, 195.0000000000000000 ) ;
#545 = VECTOR ( 'NONE', #337, 1000.000000000000000 ) ;
#546 = CARTESIAN_POINT ( 'NONE',  ( 0.000000000000000000, 3.473226601247528493E-30, 2.999999999999980016 ) ) ;
#547 = DIRECTION ( 'NONE',  ( 1.000000000000000000, 0.000000000000000000, 0.000000000000000000 ) ) ;
#548 =( NAMED_UNIT ( * ) PLANE_ANGLE_UNIT ( ) SI_UNIT ( $, .RADIAN. ) );
#549 = PRODUCT_CONTEXT ( 'NONE', #572, 'mechanical' ) ;
#550 = DIRECTION ( 'NONE',  ( 0.000000000000000000, 1.836970198721029688E-16, -1.000000000000000000 ) ) ;
#551 = DIRECTION ( 'NONE',  ( -0.000000000000000000, -1.836970198721029688E-16, 1.000000000000000000 ) ) ;
#552 = CLOSED_SHELL ( 'NONE', ( #424, #114, #77, #498, #523, #305 ) ) ;
#553 = DIRECTION ( 'NONE',  ( 0.000000000000000000, -1.000000000000000000, -1.868163743359638428E-16 ) ) ;
#554 = AXIS2_PLACEMENT_3D ( 'NONE', #578, #470, #630 ) ;
#555 = EDGE_CURVE ( 'NONE', #276, #465, #357, .T. ) ;
#556 = DIRECTION ( 'NONE',  ( 0.000000000000000000, 1.000000000000000000, 0.000000000000000000 ) ) ;
#557 = CARTESIAN_POINT ( 'NONE',  ( 0.000000000000000000, 1.102182119232627180E-15, -3.000000000000051958 ) ) ;
#558 = CARTESIAN_POINT ( 'NONE',  ( 0.000000000000000000, -65.00000000000000000, 2.999999999999987121 ) ) ;
#559 = CARTESIAN_POINT ( 'NONE',  ( -65.00000000000000000, -3.659266894335748121E-30, -3.000000000000012879 ) ) ;
#560 = ORIENTED_EDGE ( 'NONE', *, *, #123, .F. ) ;
#561 = EDGE_CURVE ( 'NONE', #53, #270, #451, .T. ) ;
#562 = EDGE_CURVE ( 'NONE', #32, #691, #83, .T. ) ;
#563 = LINE ( 'NONE', #13, #514 ) ;
#564 = VECTOR ( 'NONE', #464, 1000.000000000000000 ) ;
#565 = PLANE ( 'NONE',  #608 ) ;
#566 = ORIENTED_EDGE ( 'NONE', *, *, #168, .T. ) ;
#567 = DIRECTION ( 'NONE',  ( 0.000000000000000000, -1.000000000000000000, -1.836970198721029688E-16 ) ) ;
#568 = DIRECTION ( 'NONE',  ( 0.000000000000000000, -1.000000000000000000, -1.868163743359638428E-16 ) ) ;
#569 = UNCERTAINTY_MEASURE_WITH_UNIT (LENGTH_MEASURE( 1.000000000000000082E-05 ), #328, 'distance_accuracy_value', 'NONE');
#570 = DIRECTION ( 'NONE',  ( 0.000000000000000000, -0.000000000000000000, 1.000000000000000000 ) ) ;
#571 = DIRECTION ( 'NONE',  ( 0.000000000000000000, -1.000000000000000000, -1.845923698795833165E-16 ) ) ;
#572 = APPLICATION_CONTEXT ( 'automotive_design' ) ;
#573 = EDGE_LOOP ( 'NONE', ( #637, #34, #540, #375 ) ) ;
#574 = DIRECTION ( 'NONE',  ( 0.000000000000000000, -1.000000000000000000, -1.868163743359638428E-16 ) ) ;
#575 = LINE ( 'NONE', #133, #124 ) ;
#576 = ORIENTED_EDGE ( 'NONE', *, *, #350, .F. ) ;
#577 = VECTOR ( 'NONE', #520, 1000.000000000000000 ) ;
#578 = CARTESIAN_POINT ( 'NONE',  ( 0.000000000000000000, 1.102182119232620080E-15, -3.000000000000012879 ) ) ;
#579 =( NAMED_UNIT ( * ) SI_UNIT ( $, .STERADIAN. ) SOLID_ANGLE_UNIT ( ) );
#580 = ORIENTED_EDGE ( 'NONE', *, *, #500, .T. ) ;
#581 = EDGE_CURVE ( 'NONE', #81, #121, #248, .T. ) ;
#582 = LINE ( 'NONE', #36, #125 ) ;
#583 = LINE ( 'NONE', #204, #26 ) ;
#584 = ORIENTED_EDGE ( 'NONE', *, *, #616, .F. ) ;
#585 = DIRECTION ( 'NONE',  ( 0.000000000000000000, 1.836970198721029688E-16, -1.000000000000000000 ) ) ;
#586 = DIRECTION ( 'NONE',  ( -0.000000000000000000, -1.836970198721029688E-16, 1.000000000000000000 ) ) ;
#587 = VERTEX_POINT ( 'NONE', #22 ) ;
#588 = CARTESIAN_POINT ( 'NONE',  ( 195.0000000000000000, 5.510910596163120124E-16, 2.999999999999980016 ) ) ;
#589 = AXIS2_PLACEMENT_3D ( 'NONE', #522, #35, #97 ) ;
#590 = SURFACE_SIDE_STYLE ('',( #299 ) ) ;
#591 = EDGE_LOOP ( 'NONE', ( #355, #689, #101, #670 ) ) ;
#592 = ORIENTED_EDGE ( 'NONE', *, *, #652, .T. ) ;
#593 = DIRECTION ( 'NONE',  ( 0.000000000000000000, -1.836970198721029688E-16, 1.000000000000000000 ) ) ;
#594 = CARTESIAN_POINT ( 'NONE',  ( 0.000000000000000000, 1.102182119232627180E-15, -3.000000000000051958 ) ) ;
#595 = EDGE_LOOP ( 'NONE', ( #186, #361, #93, #639 ) ) ;
#596 = CARTESIAN_POINT ( 'NONE',  ( 0.000000000000000000, 0.000000000000000000, 0.000000000000000000 ) ) ;
#597 = EDGE_CURVE ( 'NONE', #419, #372, #455, .T. ) ;
#598 = CARTESIAN_POINT ( 'NONE',  ( 0.000000000000000000, 195.0000000000000000, 3.000000000000035083 ) ) ;
#599 = CARTESIAN_POINT ( 'NONE',  ( 0.000000000000000000, 0.000000000000000000, 2.999999999999999112 ) ) ;
#600 = VECTOR ( 'NONE', #60, 1000.000000000000000 ) ;
#601 = DIRECTION ( 'NONE',  ( -0.000000000000000000, -1.836970198721029688E-16, 1.000000000000000000 ) ) ;
#602 = DIRECTION ( 'NONE',  ( 0.000000000000000000, -1.000000000000000000, -1.845923698795833165E-16 ) ) ;
#603 = CARTESIAN_POINT ( 'NONE',  ( 0.000000000000000000, 0.000000000000000000, -3.000000000000032419 ) ) ;
#604 = DIRECTION ( 'NONE',  ( 1.000000000000000000, 0.000000000000000000, 0.000000000000000000 ) ) ;
#605 = ADVANCED_FACE ( 'NONE', ( #353 ), #188, .F. ) ;
#606 = CARTESIAN_POINT ( 'NONE',  ( 0.000000000000000000, 65.00000000000000000, 3.000000000000011546 ) ) ;
#607 = DIRECTION ( 'NONE',  ( -0.000000000000000000, -1.836970198721029688E-16, 1.000000000000000000 ) ) ;
#608 = AXIS2_PLACEMENT_3D ( 'NONE', #249, #290, #622 ) ;
#609 = DIRECTION ( 'NONE',  ( 0.000000000000000000, 1.836970198721029688E-16, -1.000000000000000000 ) ) ;
#610 = CIRCLE ( 'NONE', #91, 195.0000000000000000 ) ;
#611 = CARTESIAN_POINT ( 'NONE',  ( 0.000000000000000000, 0.000000000000000000, 2.999999999999999112 ) ) ;
#612 = CARTESIAN_POINT ( 'NONE',  ( 0.000000000000000000, 195.0000000000000000, -2.999999999999996447 ) ) ;
#613 = CARTESIAN_POINT ( 'NONE',  ( -195.0000000000000000, 0.000000000000000000, 2.999999999999999112 ) ) ;
#614 = EDGE_CURVE ( 'NONE', #692, #270, #390, .T. ) ;
#615 = EDGE_LOOP ( 'NONE', ( #320, #660, #619, #25 ) ) ;
#616 = EDGE_CURVE ( 'NONE', #73, #276, #624, .T. ) ;
#617 = DIRECTION ( 'NONE',  ( -0.000000000000000000, -1.836970198721029688E-16, 1.000000000000000000 ) ) ;
#618 = CARTESIAN_POINT ( 'NONE',  ( 0.000000000000000000, 65.00000000000000000, 2.999999999999996447 ) ) ;
#619 = ORIENTED_EDGE ( 'NONE', *, *, #652, .F. ) ;
#620 = ADVANCED_BREP_SHAPE_REPRESENTATION ( 'fin', ( #649, #187, #415, #417, #313 ), #300 ) ;
#621 = PRESENTATION_LAYER_ASSIGNMENT (  '', '', ( #438 ) ) ;
#622 = DIRECTION ( 'NONE',  ( 0.000000000000000000, 1.000000000000000000, 1.836970198721029688E-16 ) ) ;
#623 = EDGE_CURVE ( 'NONE', #154, #419, #563, .T. ) ;
#624 = LINE ( 'NONE', #344, #68 ) ;
#625 = DIRECTION ( 'NONE',  ( 0.000000000000000000, 1.000000000000000000, 1.836970198721029688E-16 ) ) ;
#626 = EDGE_LOOP ( 'NONE', ( #525, #427, #369, #109 ) ) ;
#627 = DIRECTION ( 'NONE',  ( -0.000000000000000000, -1.836970198721029688E-16, 1.000000000000000000 ) ) ;
#628 = LINE ( 'NONE', #502, #564 ) ;
#629 = EDGE_LOOP ( 'NONE', ( #672, #480, #163, #359 ) ) ;
#630 = DIRECTION ( 'NONE',  ( 0.000000000000000000, -1.000000000000000000, -1.868163743359638428E-16 ) ) ;
#631 = VECTOR ( 'NONE', #585, 1000.000000000000000 ) ;
#632 = LINE ( 'NONE', #312, #655 ) ;
#633 = CIRCLE ( 'NONE', #389, 65.00000000000000000 ) ;
#634 = ORIENTED_EDGE ( 'NONE', *, *, #209, .T. ) ;
#635 = VECTOR ( 'NONE', #617, 1000.000000000000000 ) ;
#636 = FACE_OUTER_BOUND ( 'NONE', #482, .T. ) ;
#637 = ORIENTED_EDGE ( 'NONE', *, *, #445, .F. ) ;
#638 = ADVANCED_FACE ( 'NONE', ( #511 ), #391, .F. ) ;
#639 = ORIENTED_EDGE ( 'NONE', *, *, #531, .T. ) ;
#640 = ORIENTED_EDGE ( 'NONE', *, *, #156, .F. ) ;
#641 = ORIENTED_EDGE ( 'NONE', *, *, #623, .F. ) ;
#642 = ORIENTED_EDGE ( 'NONE', *, *, #654, .F. ) ;
#643 = ORIENTED_EDGE ( 'NONE', *, *, #531, .F. ) ;
#644 = STYLED_ITEM ( 'NONE', ( #233 ), #187 ) ;
#645 = SURFACE_STYLE_USAGE ( .BOTH. , #149 ) ;
#646 = ORIENTED_EDGE ( 'NONE', *, *, #555, .T. ) ;
#647 = LINE ( 'NONE', #189, #67 ) ;
#648 = CARTESIAN_POINT ( 'NONE',  ( -65.00000000000000000, -3.659266894335748121E-30, -3.000000000000012879 ) ) ;
#649 = MANIFOLD_SOLID_BREP ( 'Split2[1]', #552 ) ;
#650 = DIRECTION ( 'NONE',  ( 0.000000000000000000, -0.000000000000000000, 1.000000000000000000 ) ) ;
#651 = PLANE ( 'NONE',  #76 ) ;
#652 = EDGE_CURVE ( 'NONE', #223, #507, #582, .T. ) ;
#653 = AXIS2_PLACEMENT_3D ( 'NONE', #229, #437, #661 ) ;
#654 = EDGE_CURVE ( 'NONE', #419, #131, #610, .T. ) ;
#655 = VECTOR ( 'NONE', #43, 1000.000000000000000 ) ;
#656 =( NAMED_UNIT ( * ) PLANE_ANGLE_UNIT ( ) SI_UNIT ( $, .RADIAN. ) );
#657 = LINE ( 'NONE', #663, #600 ) ;
#658 = EDGE_CURVE ( 'NONE', #342, #51, #16, .T. ) ;
#659 =( NAMED_UNIT ( * ) SI_UNIT ( $, .STERADIAN. ) SOLID_ANGLE_UNIT ( ) );
#660 = ORIENTED_EDGE ( 'NONE', *, *, #168, .F. ) ;
#661 = DIRECTION ( 'NONE',  ( 0.000000000000000000, -0.000000000000000000, 1.000000000000000000 ) ) ;
#662 = CARTESIAN_POINT ( 'NONE',  ( 0.000000000000000000, 65.00000000000000000, -3.000000000000000888 ) ) ;
#663 = CARTESIAN_POINT ( 'NONE',  ( 0.000000000000000000, 195.0000000000000000, -2.999999999999996447 ) ) ;
#664 = VECTOR ( 'NONE', #271, 1000.000000000000000 ) ;
#665 = ADVANCED_FACE ( 'NONE', ( #104 ), #366, .F. ) ;
#666 = AXIS2_PLACEMENT_3D ( 'NONE', #668, #243, #570 ) ;
#667 = FACE_OUTER_BOUND ( 'NONE', #266, .T. ) ;
#668 = CARTESIAN_POINT ( 'NONE',  ( 0.000000000000000000, 0.000000000000000000, 0.000000000000000000 ) ) ;
#669 = CARTESIAN_POINT ( 'NONE',  ( 0.000000000000000000, 195.0000000000000000, -2.999999999999996447 ) ) ;
#670 = ORIENTED_EDGE ( 'NONE', *, *, #561, .T. ) ;
#671 = FACE_OUTER_BOUND ( 'NONE', #478, .T. ) ;
#672 = ORIENTED_EDGE ( 'NONE', *, *, #190, .T. ) ;
#673 = EDGE_CURVE ( 'NONE', #401, #223, #159, .T. ) ;
#674 = CARTESIAN_POINT ( 'NONE',  ( 0.000000000000000000, 0.000000000000000000, 2.999999999999999112 ) ) ;
#675 =( GEOMETRIC_REPRESENTATION_CONTEXT ( 3 ) GLOBAL_UNCERTAINTY_ASSIGNED_CONTEXT ( ( #569 ) ) GLOBAL_UNIT_ASSIGNED_CONTEXT ( ( #328, #548, #441 ) ) REPRESENTATION_CONTEXT ( 'NONE', 'WORKASPACE' ) );
#676 = CARTESIAN_POINT ( 'NONE',  ( 0.000000000000000000, 65.00000000000000000, 3.000000000000000888 ) ) ;
#677 = VECTOR ( 'NONE', #459, 1000.000000000000000 ) ;
#678 = EDGE_LOOP ( 'NONE', ( #423, #566, #697, #29 ) ) ;
#679 = ADVANCED_FACE ( 'NONE', ( #370 ), #535, .F. ) ;
#680 = CARTESIAN_POINT ( 'NONE',  ( 0.000000000000000000, 195.0000000000000000, -2.999999999999996447 ) ) ;
#681 = PRODUCT_DEFINITION_SHAPE ( 'NONE', 'NONE',  #412 ) ;
#682 = CARTESIAN_POINT ( 'NONE',  ( 0.000000000000000000, 0.000000000000000000, 2.999999999999999112 ) ) ;
#683 = EDGE_LOOP ( 'NONE', ( #472, #54, #254, #140 ) ) ;
#684 = FILL_AREA_STYLE ('',( #47 ) ) ;
#685 = EDGE_CURVE ( 'NONE', #276, #692, #206, .T. ) ;
#686 = CARTESIAN_POINT ( 'NONE',  ( 0.000000000000000000, 195.0000000000000000, -3.000000000000015987 ) ) ;
#687 = AXIS2_PLACEMENT_3D ( 'NONE', #11, #556, #3 ) ;
#688 = EDGE_CURVE ( 'NONE', #518, #81, #235, .T. ) ;
#689 = ORIENTED_EDGE ( 'NONE', *, *, #156, .T. ) ;
#690 = FILL_AREA_STYLE_COLOUR ( '', #15 ) ;
#691 = VERTEX_POINT ( 'NONE', #467 ) ;
#692 = VERTEX_POINT ( 'NONE', #144 ) ;
#693 = DIRECTION ( 'NONE',  ( 0.000000000000000000, -1.836970198721029688E-16, 1.000000000000000000 ) ) ;
#694 = ORIENTED_EDGE ( 'NONE', *, *, #428, .T. ) ;
#695 = LINE ( 'NONE', #167, #664 ) ;
#696 =( LENGTH_UNIT ( ) NAMED_UNIT ( * ) SI_UNIT ( .MILLI., .METRE. ) );
#697 = ORIENTED_EDGE ( 'NONE', *, *, #190, .F. ) ;
#698 = AXIS2_PLACEMENT_3D ( 'NONE', #383, #392, #292 ) ;
ENDSEC;
END-ISO-10303-21;
